# xmcd CD database file
#
# Track frame offsets:
#	150
#	95695
#	161969
#	183173
#	249765
#
# Disc length: 4438 seconds
#
# Revision: 0
# Processed by: cddbd v1.5.2PL0 Copyright (c) Steve Scherf et al.
# Submitted via: CDex 1.70beta3
#
DISCID=37115405
DTITLE=Abe Kaoru and Toyozumi Sabu - Mannyoka
DYEAR=1978
DGENRE=Jazz
TTITLE0=満江に捧げる。 Part I
TTITLE1=満江に捧げる。 Part II
TTITLE2=喜久代に捧げる。 Part I
TTITLE3=喜久代に捧げる。 Part II
TTITLE4=喜久代に捧げる。 Part III
EXTD=YEAR: 1978
EXTT0=
EXTT1=
EXTT2=
EXTT3=
EXTT4=
PLAYORDER=
